#!OML:ASF E:\acrobat2\Project_11_07_03\Capture day 1\Session 1\Acrobat.ASF
:FULLY-SPECIFIED
:DEGREES
1386
root 4.75763 28.0665 31.4854 6.32002 -0.0615307 -0.36782
lowerback 1.15784 1.26267 1.96688
upperback 2.25597 1.70054 -1.2103
thorax 1.75917 0.895311 -2.33603
lowerneck -0.944666 -1.83158 -5.25633
upperneck 27.4649 -3.66582 6.766
head 8.91413 -1.60275 2.95234
rclavicle -7.05686e-015 -1.78906e-015
rhumerus -41.7718 -7.79172 -71.0727
rradius 32.0024
rwrist 5.89427
rhand -1.38555 -19.3883
rfingers 7.12502
rthumb 24.2626 -47.8731
lclavicle -7.05686e-015 -1.78906e-015
lhumerus -24.6462 -5.7389 72.4694
lradius 38.9373
lwrist 10.1796
lhand -19.881 -19.4595
lfingers 7.12502
lthumb 6.45473 10.4221
rfemur -10.0919 -1.61447 22.3122
rtibia 14.6187
rfoot -18.1986 -20.3961
rtoes -5.20136
lfemur -16.5067 0.340783 -16.6789
ltibia 22.9944
lfoot 2.9027 -14.6501
ltoes 37.8057
1387
root 4.76727 28.0697 31.5157 6.3303 -0.125252 -0.541015
lowerback 1.05806 1.29013 2.12963
upperback 2.21376 1.73474 -1.1495
thorax 1.77689 0.914313 -2.36271
lowerneck -1.00268 -1.80072 -5.33744
upperneck 27.5157 -3.63534 6.84866
head 8.94309 -1.58752 2.99837
rclavicle 6.36111e-015 -1.2921e-014
rhumerus -41.7497 -7.86684 -70.5498
rradius 32.1533
rwrist 5.56491
rhand -1.99918 -19.4229
rfingers 7.12502
rthumb 23.6742 -47.985
lclavicle 6.36111e-015 -1.2921e-014
lhumerus -25.0266 -5.95366 72.7377
lradius 39.0796
lwrist 9.65907
lhand -19.1121 -19.6303
lfingers 7.12502
lthumb 7.19692 10.2273
rfemur -10.0487 -1.46485 22.336
rtibia 14.5247
rfoot -17.9939 -20.4867
rtoes -5.15703
lfemur -16.3056 0.380912 -16.743
ltibia 22.977
lfoot 1.9693 -14.3803
ltoes 37.954
1388
root 4.77637 28.0718 31.5464 6.36821 -0.229599 -0.708561
lowerback 0.94017 1.34141 2.26761
upperback 2.16161 1.80031 -1.10579
thorax 1.79631 0.94864 -2.39235
lowerneck -1.0938 -1.79642 -5.40538
upperneck 27.5655 -3.64688 6.95056
head 8.9809 -1.58824 3.04529
rclavicle 3.926e-015 -6.36111e-015
rhumerus -41.7421 -7.99845 -70.046
rradius 32.3121
rwrist 5.18849
rhand -2.50716 -19.5314
rfingers 7.12502
rthumb 23.1869 -48.1558
lclavicle 3.926e-015 -6.36111e-015
lhumerus -25.41 -6.20485 72.9981
lradius 39.2318
lwrist 9.17953
lhand -18.3098 -19.7606
lfingers 7.12502
lthumb 7.97137 10.0691
rfemur -10.05 -1.32135 22.3394
rtibia 14.4545
rfoot -17.7377 -20.5428
rtoes -5.16063
lfemur -16.0568 0.389633 -16.8098
ltibia 22.7907
lfoot 0.92176 -13.9692
ltoes 37.8302
1389
root 4.78506 28.0723 31.5774 6.41667 -0.371028 -0.902862
lowerback 0.823961 1.40469 2.40378
upperback 2.10148 1.88162 -1.06152
thorax 1.80767 0.990568 -2.42018
lowerneck -1.19485 -1.80232 -5.45698
upperneck 27.5934 -3.67493 7.05962
head 9.01385 -1.5944 3.09007
rclavicle -1.93815e-015 6.36111e-015
rhumerus -41.7274 -8.11551 -69.5837
rradius 32.4637
rwrist 4.71653
rhand -2.98081 -19.7198
rfingers 7.12502
rthumb 22.7324 -48.4006
lclavicle -1.93815e-015 6.36111e-015
lhumerus -25.8086 -6.43031 73.2606
lradius 39.3833
lwrist 8.72992
lhand -17.5072 -19.8918
lfingers 7.12502
lthumb 8.74593 9.90702
rfemur -10.0793 -1.2036 22.3619
rtibia 14.4151
rfoot -17.436 -20.5301
rtoes -5.22041
lfemur -15.7409 0.375585 -16.8362
ltibia 22.4008
lfoot -0.15727 -13.4509
ltoes 37.2543
1390
root 4.79341 28.0706 31.6077 6.45214 -0.536321 -1.20115
lowerback 0.740026 1.45188 2.59567
upperback 2.04144 1.9412 -0.978817
thorax 1.8005 1.02187 -2.4407
lowerneck -1.30259 -1.79875 -5.44139
upperneck 27.5856 -3.67238 7.07598
head 9.03072 -1.58852 3.09229
rclavicle -5.51627e-015 0
rhumerus -41.6637 -8.13202 -69.1918
rradius 32.6008
rwrist 4.12157
rhand -3.48635 -19.9653
rfingers 7.12502
rthumb 22.2471 -48.7049
lclavicle -5.51627e-015 0
lhumerus -26.2269 -6.53704 73.5197
lradius 39.5093
lwrist 8.28777
lhand -16.7384 -20.0577
lfingers 7.12502
lthumb 9.4878 9.70875
rfemur -10.114 -1.13092 22.5032
rtibia 14.4112
rfoot -17.1 -20.4192
rtoes -5.34226
lfemur -15.345 0.367468 -16.7222
ltibia 21.8122
lfoot -1.09506 -12.8815
ltoes 36.5245
1391
root 4.80032 28.0668 31.6366 6.48015 -0.722704 -1.56227
lowerback 0.682619 1.45065 2.75915
upperback 1.99107 1.93609 -0.855595
thorax 1.78199 1.01985 -2.40496
lowerneck -1.40517 -1.75945 -5.29134
upperneck 27.493 -3.58357 6.90048
head 9.00536 -1.54803 3.00905
rclavicle -9.93923e-015 -1.13307e-014
rhumerus -41.4867 -7.9835 -68.9082
rradius 32.7136
rwrist 3.41782
rhand -3.97964 -20.2713
rfingers 7.12502
rthumb 21.7735 -49.0666
lclavicle -9.93923e-015 -1.13307e-014
lhumerus -26.6769 -6.45537 73.7338
lradius 39.6177
lwrist 7.84809
lhand -16.0186 -20.2672
lfingers 7.12502
lthumb 10.1822 9.46641
rfemur -10.1706 -1.09835 22.7147
rtibia 14.4537
rfoot -16.7524 -20.2232
rtoes -5.56634
lfemur -14.9084 0.367656 -16.5095
ltibia 21.0956
lfoot -1.81685 -12.3358
ltoes 35.8838
1392
root 4.80573 28.061 31.6637 6.49552 -0.922918 -1.96283
lowerback 0.659407 1.41322 2.8931
upperback 1.94842 1.88325 -0.705047
thorax 1.74719 0.993051 -2.32604
lowerneck -1.51612 -1.69263 -5.09404
upperneck 27.3673 -3.44507 6.66138
head 8.96504 -1.48613 2.89888
rclavicle 1.49089e-016 6.16232e-015
rhumerus -41.228 -7.71636 -68.7037
rradius 32.811
rwrist 2.64363
rhand -4.38284 -20.6284
rfingers 7.12502
rthumb 21.3863 -49.4682
lclavicle 1.49089e-016 6.16232e-015
lhumerus -27.1668 -6.26764 73.9158
lradius 39.7256
lwrist 7.46804
lhand -15.3587 -20.5067
lfingers 7.12502
lthumb 10.8188 9.19469
rfemur -10.2463 -1.11962 22.9691
rtibia 14.5492
rfoot -16.404 -19.9447
rtoes -5.95322
lfemur -14.471 0.378963 -16.2298
ltibia 20.3644
lfoot -2.34644 -11.8725
ltoes 35.2017
1393
root 4.80997 28.0542 31.6889 6.49732 -1.12557 -2.35514
lowerback 0.671447 1.34295 2.96832
upperback 1.91281 1.78784 -0.549174
thorax 1.69512 0.943826 -2.21012
lowerneck -1.6202 -1.60597 -4.86062
upperneck 27.2193 -3.27346 6.38199
head 8.91305 -1.40966 2.77107
rclavicle 2.03754e-014 -1.03368e-014
rhumerus -40.9058 -7.381 -68.5586
rradius 32.8952
rwrist 1.87292
rhand -4.62911 -21.0184
rfingers 7.12502
rthumb 21.1497 -49.8848
lclavicle 2.03754e-014 -1.03368e-014
lhumerus -27.6931 -6.01009 74.0654
lradius 39.8333
lwrist 7.18385
lhand -14.7652 -20.7345
lfingers 7.12502
lthumb 11.3912 8.93613
rfemur -10.3378 -1.20974 23.207
rtibia 14.6935
rfoot -16.0477 -19.5944
rtoes -6.4939
lfemur -14.0736 0.391541 -15.9479
ltibia 19.7223
lfoot -2.69143 -11.5192
ltoes 34.642
1394
root 4.81252 28.0476 31.7122 6.50187 -1.32848 -2.645
lowerback 0.697719 1.26463 2.90971
upperback 1.88249 1.68312 -0.427439
thorax 1.63712 0.88824 -2.05459
lowerneck -1.69071 -1.51625 -4.64135
upperneck 27.037 -3.10721 6.14595
head 8.84485 -1.33398 2.66038
rclavicle 3.62782e-015 5.56597e-015
rhumerus -40.559 -7.10306 -68.4305
rradius 32.9758
rwrist 1.18996
rhand -4.70318 -21.4168
rfingers 7.12502
rthumb 21.0786 -50.2911
lclavicle 3.62782e-015 5.56597e-015
lhumerus -28.2194 -5.77184 74.1951
lradius 39.9323
lwrist 7.00391
lhand -14.2358 -20.8895
lfingers 7.12502
lthumb 11.9017 8.75226
rfemur -10.466 -1.34254 23.3129
rtibia 14.882
rfoot -15.6846 -19.222
rtoes -7.10403
lfemur -13.768 0.395673 -15.7779
ltibia 19.2444
lfoot -2.87735 -11.2799
ltoes 34.5032
1395
root 4.81329 28.0424 31.7334 6.50972 -1.52255 -2.80352
lowerback 0.734231 1.19912 2.71522
upperback 1.86196 1.59671 -0.359666
thorax 1.58272 0.840558 -1.87815
lowerneck -1.78327 -1.46144 -4.46979
upperneck 26.8752 -3.00958 6.00927
head 8.79482 -1.28534 2.58747
rclavicle 9.49197e-015 0
rhumerus -40.2257 -7.01254 -68.2713
rradius 33.0745
rwrist 0.691492
rhand -4.61642 -21.7691
rfingers 7.12502
rthumb 21.1619 -50.6341
lclavicle 9.49197e-015 0
lhumerus -28.7049 -5.63758 74.3206
lradius 40.0167
lwrist 6.94356
lhand -13.7658 -20.925
lfingers 7.12502
lthumb 12.3549 8.68992
rfemur -10.6335 -1.50844 23.2543
rtibia 15.1175
rfoot -15.3143 -18.856
rtoes -7.68419
lfemur -13.5785 0.401489 -15.755
ltibia 18.9664
lfoot -2.98033 -11.1293
ltoes 34.5982
1396
root 4.81189 28.039 31.7524 6.5168 -1.69794 -2.83983
lowerback 0.784774 1.14991 2.4007
upperback 1.85504 1.53291 -0.342187
thorax 1.53439 0.80325 -1.6859
lowerneck -1.89864 -1.44828 -4.35789
upperneck 26.725 -2.98488 5.96065
head 8.75972 -1.26796 2.54978
rclavicle 4.47266e-016 -3.97569e-016
rhumerus -39.924 -7.16432 -68.0592
rradius 33.2065
rwrist 0.434234
rhand -4.40159 -22.0508
rfingers 7.12502
rthumb 21.3683 -50.8925
lclavicle 4.47266e-016 -3.97569e-016
lhumerus -29.1319 -5.61417 74.4506
lradius 40.0775
lwrist 6.98186
lhand -13.3718 -20.8673
lfingers 7.12502
lthumb 12.7348 8.7244
rfemur -10.8328 -1.70162 23.049
rtibia 15.3982
rfoot -14.9184 -18.5007
rtoes -8.2435
lfemur -13.5046 0.42836 -15.8629
ltibia 18.8728
lfoot -3.06327 -11.0244
ltoes 34.5227
1397
root 4.80819 28.0377 31.7693 6.51646 -1.85103 -2.78083
lowerback 0.854279 1.12045 2.00109
upperback 1.86432 1.49588 -0.36614
thorax 1.49283 0.778826 -1.48838
lowerneck -2.06905 -1.485 -4.33467
upperneck 26.6093 -3.04116 6.00046
head 8.75415 -1.28763 2.55183
rclavicle 4.47266e-016 7.55382e-015
rhumerus -39.6639 -7.51087 -67.8113
rradius 33.3724
rwrist 0.337555
rhand -4.18166 -22.2568
rfingers 7.12502
rthumb 21.5795 -51.0745
lclavicle 4.47266e-016 7.55382e-015
lhumerus -29.48 -5.70965 74.5963
lradius 40.0866
lwrist 7.09876
lhand -13.1029 -20.7713
lfingers 7.12502
lthumb 12.994 8.80402
rfemur -11.0448 -1.89578 22.7327
rtibia 15.7014
rfoot -14.4835 -18.1473
rtoes -8.86697
lfemur -13.5162 0.495124 -16.0655
ltibia 18.9067
lfoot -3.16083 -10.9164
ltoes 33.8462
1398
root 4.80295 28.0381 31.7842 6.49409 -1.97721 -2.72477
lowerback 0.9656 1.11248 1.6375
upperback 1.89008 1.48762 -0.406632
thorax 1.44776 0.769643 -1.32842
lowerneck -2.26451 -1.54942 -4.36511
upperneck 26.4968 -3.14887 6.12314
head 8.75931 -1.32814 2.58747
rclavicle 1.78906e-015 -6.36111e-015
rhumerus -39.4539 -7.99883 -67.5512
rradius 33.5595
rwrist 0.318932
rhand -4.064 -22.378
rfingers 7.12502
rthumb 21.6925 -51.1827
lclavicle 1.78906e-015 -6.36111e-015
lhumerus -29.7212 -5.93293 74.7638
lradius 39.9985
lwrist 7.27979
lhand -13.0066 -20.6714
lfingers 7.12502
lthumb 13.0869 8.89804
rfemur -11.234 -2.06643 22.4311
rtibia 15.996
rfoot -14.0154 -17.7689
rtoes -9.53658
lfemur -13.5614 0.627685 -16.2425
ltibia 19.0056
lfoot -3.23254 -10.7947
ltoes 32.6627
1399
root 4.79604 28.0402 31.7972 6.46501 -2.08584 -2.68426
lowerback 1.10529 1.10285 1.29963
upperback 1.92841 1.47669 -0.45525
thorax 1.40069 0.759685 -1.19163
lowerneck -2.50128 -1.61196 -4.34807
upperneck 26.3895 -3.24738 6.20202
head 8.7724 -1.36297 2.6002
rclavicle -2.08724e-015 -6.36111e-015
rhumerus -39.2561 -8.53888 -67.3359
rradius 33.7535
rwrist 0.334453
rhand -4.05203 -22.4304
rfingers 7.12502
rthumb 21.704 -51.2337
lclavicle -2.08724e-015 -6.36111e-015
lhumerus -29.8598 -6.20347 74.9077
lradius 39.793
lwrist 7.49247
lhand -13.0245 -20.5683
lfingers 7.12502
lthumb 13.0695 9.00218
rfemur -11.4042 -2.16786 22.1641
rtibia 16.2601
rfoot -13.5442 -17.3631
rtoes -10.2031
lfemur -13.6292 0.787237 -16.3743
ltibia 19.1314
lfoot -3.25268 -10.6579
ltoes 31.5843
1400
root 4.78833 28.0435 31.8088 6.43859 -2.18439 -2.70572
lowerback 1.25932 1.10571 1.06497
upperback 1.96835 1.48189 -0.508124
thorax 1.35071 0.759312 -1.1172
lowerneck -2.72317 -1.65405 -4.31519
upperneck 26.2532 -3.32505 6.31196
head 8.7715 -1.38388 2.62211
rclavicle -2.46493e-014 -1.59028e-015
rhumerus -39.1266 -9.16307 -67.1459
rradius 33.9998
rwrist 0.402619
rhand -4.0797 -22.4501
rfingers 7.12502
rthumb 21.6774 -51.2565
lclavicle -2.46493e-014 -1.59028e-015
lhumerus -29.9093 -6.53164 75.0263
lradius 39.4736
lwrist 7.71153
lhand -13.0944 -20.445
lfingers 7.12502
lthumb 13.0022 9.12985
rfemur -11.5501 -2.18172 21.9894
rtibia 16.4741
rfoot -13.0955 -16.9161
rtoes -10.8997
lfemur -13.7118 0.927039 -16.4085
ltibia 19.2709
lfoot -3.27771 -10.4938
ltoes 30.6779
